<mxfile host="app.diagrams.net" modified="2024-02-27T07:06:54.983Z" agent="Mozilla/5.0 (Windows NT 10.0; Win64; x64) AppleWebKit/537.36 (KHTML, like Gecko) Chrome/122.0.0.0 Safari/537.36 Edg/122.0.0.0" etag="yvlTwWTeJY26tOtjkOGq" version="23.1.7" type="github" pages="2">
  <diagram name="Page-1" id="owukoaQ3S3eGMsweUo0K">
    <mxGraphModel dx="1426" dy="751" grid="1" gridSize="10" guides="1" tooltips="1" connect="1" arrows="1" fold="1" page="1" pageScale="1" pageWidth="850" pageHeight="1100" math="0" shadow="0">
      <root>
        <mxCell id="0" />
        <mxCell id="1" parent="0" />
        <mxCell id="pn2R9YPTt7V3VJmglp6e-1" value="" style="rounded=0;whiteSpace=wrap;html=1;" vertex="1" parent="1">
          <mxGeometry x="40" y="200" width="200" height="120" as="geometry" />
        </mxCell>
        <mxCell id="pn2R9YPTt7V3VJmglp6e-2" value="Player" style="text;html=1;align=center;verticalAlign=middle;whiteSpace=wrap;rounded=0;" vertex="1" parent="1">
          <mxGeometry x="110" y="245" width="60" height="30" as="geometry" />
        </mxCell>
        <mxCell id="pn2R9YPTt7V3VJmglp6e-3" value="" style="ellipse;whiteSpace=wrap;html=1;aspect=fixed;" vertex="1" parent="1">
          <mxGeometry x="700" y="195" width="130" height="130" as="geometry" />
        </mxCell>
        <mxCell id="pn2R9YPTt7V3VJmglp6e-4" value="Tic Tac Toe Game" style="text;html=1;align=center;verticalAlign=middle;whiteSpace=wrap;rounded=0;" vertex="1" parent="1">
          <mxGeometry x="735" y="245" width="60" height="30" as="geometry" />
        </mxCell>
        <mxCell id="pn2R9YPTt7V3VJmglp6e-5" value="" style="endArrow=classic;html=1;rounded=0;" edge="1" parent="1" target="pn2R9YPTt7V3VJmglp6e-1">
          <mxGeometry width="50" height="50" relative="1" as="geometry">
            <mxPoint x="390" y="400" as="sourcePoint" />
            <mxPoint x="450" y="360" as="targetPoint" />
          </mxGeometry>
        </mxCell>
        <mxCell id="pn2R9YPTt7V3VJmglp6e-6" value="" style="endArrow=none;html=1;rounded=0;entryX=0;entryY=1;entryDx=0;entryDy=0;" edge="1" parent="1" target="pn2R9YPTt7V3VJmglp6e-3">
          <mxGeometry width="50" height="50" relative="1" as="geometry">
            <mxPoint x="390" y="400" as="sourcePoint" />
            <mxPoint x="450" y="360" as="targetPoint" />
          </mxGeometry>
        </mxCell>
        <mxCell id="pn2R9YPTt7V3VJmglp6e-10" value="" style="endArrow=none;html=1;rounded=0;" edge="1" parent="1">
          <mxGeometry width="50" height="50" relative="1" as="geometry">
            <mxPoint x="240" y="245" as="sourcePoint" />
            <mxPoint x="530" y="140" as="targetPoint" />
          </mxGeometry>
        </mxCell>
        <mxCell id="pn2R9YPTt7V3VJmglp6e-11" value="" style="endArrow=classic;html=1;rounded=0;" edge="1" parent="1" target="pn2R9YPTt7V3VJmglp6e-3">
          <mxGeometry width="50" height="50" relative="1" as="geometry">
            <mxPoint x="530" y="140" as="sourcePoint" />
            <mxPoint x="610" y="140" as="targetPoint" />
          </mxGeometry>
        </mxCell>
        <mxCell id="pn2R9YPTt7V3VJmglp6e-12" value="Move" style="text;html=1;align=center;verticalAlign=middle;whiteSpace=wrap;rounded=0;" vertex="1" parent="1">
          <mxGeometry x="420" y="195" width="60" height="30" as="geometry" />
        </mxCell>
        <mxCell id="pn2R9YPTt7V3VJmglp6e-13" value="Result" style="text;html=1;align=center;verticalAlign=middle;whiteSpace=wrap;rounded=0;" vertex="1" parent="1">
          <mxGeometry x="425" y="325" width="60" height="30" as="geometry" />
        </mxCell>
      </root>
    </mxGraphModel>
  </diagram>
  <diagram id="T0IwCBDeyqb0Qbsu1Mlt" name="Page-2">
    <mxGraphModel dx="2276" dy="751" grid="1" gridSize="10" guides="1" tooltips="1" connect="1" arrows="1" fold="1" page="1" pageScale="1" pageWidth="850" pageHeight="1100" math="0" shadow="0">
      <root>
        <mxCell id="0" />
        <mxCell id="1" parent="0" />
        <mxCell id="uMQBJk7J5b4X9hBpb9_I-1" value="" style="ellipse;whiteSpace=wrap;html=1;aspect=fixed;" vertex="1" parent="1">
          <mxGeometry x="333" y="500" width="185" height="185" as="geometry" />
        </mxCell>
        <mxCell id="uMQBJk7J5b4X9hBpb9_I-6" value="" style="endArrow=classic;html=1;rounded=0;" edge="1" parent="1" source="uMQBJk7J5b4X9hBpb9_I-1">
          <mxGeometry width="50" height="50" relative="1" as="geometry">
            <mxPoint x="420" y="560" as="sourcePoint" />
            <mxPoint x="470" y="510" as="targetPoint" />
          </mxGeometry>
        </mxCell>
        <mxCell id="uMQBJk7J5b4X9hBpb9_I-7" value="" style="endArrow=classic;html=1;rounded=0;" edge="1" parent="1">
          <mxGeometry width="50" height="50" relative="1" as="geometry">
            <mxPoint x="510" y="640" as="sourcePoint" />
            <mxPoint x="670" y="640" as="targetPoint" />
          </mxGeometry>
        </mxCell>
        <mxCell id="uMQBJk7J5b4X9hBpb9_I-9" value="" style="endArrow=classic;html=1;rounded=0;entryX=1.011;entryY=0.432;entryDx=0;entryDy=0;entryPerimeter=0;" edge="1" parent="1" target="uMQBJk7J5b4X9hBpb9_I-1">
          <mxGeometry width="50" height="50" relative="1" as="geometry">
            <mxPoint x="670" y="580" as="sourcePoint" />
            <mxPoint x="640" y="570" as="targetPoint" />
          </mxGeometry>
        </mxCell>
        <mxCell id="uMQBJk7J5b4X9hBpb9_I-10" value="" style="rounded=0;whiteSpace=wrap;html=1;" vertex="1" parent="1">
          <mxGeometry x="680" y="550" width="180" height="120" as="geometry" />
        </mxCell>
        <mxCell id="uMQBJk7J5b4X9hBpb9_I-12" value="" style="endArrow=classic;html=1;rounded=0;entryX=1.011;entryY=0.432;entryDx=0;entryDy=0;entryPerimeter=0;" edge="1" parent="1">
          <mxGeometry width="50" height="50" relative="1" as="geometry">
            <mxPoint x="330" y="570" as="sourcePoint" />
            <mxPoint x="180" y="570" as="targetPoint" />
          </mxGeometry>
        </mxCell>
        <mxCell id="uMQBJk7J5b4X9hBpb9_I-13" value="" style="endArrow=classic;html=1;rounded=0;" edge="1" parent="1">
          <mxGeometry width="50" height="50" relative="1" as="geometry">
            <mxPoint x="180" y="640" as="sourcePoint" />
            <mxPoint x="340" y="640" as="targetPoint" />
          </mxGeometry>
        </mxCell>
        <mxCell id="uMQBJk7J5b4X9hBpb9_I-14" value="" style="rounded=0;whiteSpace=wrap;html=1;" vertex="1" parent="1">
          <mxGeometry x="-10" y="550" width="180" height="120" as="geometry" />
        </mxCell>
        <mxCell id="uMQBJk7J5b4X9hBpb9_I-15" value="" style="endArrow=classic;html=1;rounded=0;exitX=0.171;exitY=0.088;exitDx=0;exitDy=0;exitPerimeter=0;" edge="1" parent="1" source="uMQBJk7J5b4X9hBpb9_I-1">
          <mxGeometry width="50" height="50" relative="1" as="geometry">
            <mxPoint x="460" y="400" as="sourcePoint" />
            <mxPoint x="360" y="360" as="targetPoint" />
          </mxGeometry>
        </mxCell>
        <mxCell id="uMQBJk7J5b4X9hBpb9_I-16" value="" style="endArrow=classic;html=1;rounded=0;exitX=0.889;exitY=0.983;exitDx=0;exitDy=0;exitPerimeter=0;entryX=1;entryY=0;entryDx=0;entryDy=0;" edge="1" parent="1" source="uMQBJk7J5b4X9hBpb9_I-17" target="uMQBJk7J5b4X9hBpb9_I-1">
          <mxGeometry width="50" height="50" relative="1" as="geometry">
            <mxPoint x="485" y="516" as="sourcePoint" />
            <mxPoint x="630" y="470" as="targetPoint" />
          </mxGeometry>
        </mxCell>
        <mxCell id="uMQBJk7J5b4X9hBpb9_I-17" value="" style="rounded=0;whiteSpace=wrap;html=1;" vertex="1" parent="1">
          <mxGeometry x="333" y="240" width="180" height="120" as="geometry" />
        </mxCell>
        <mxCell id="uMQBJk7J5b4X9hBpb9_I-19" value="Staff/Doctor" style="text;html=1;align=center;verticalAlign=middle;whiteSpace=wrap;rounded=0;" vertex="1" parent="1">
          <mxGeometry x="390" y="285" width="60" height="30" as="geometry" />
        </mxCell>
        <mxCell id="uMQBJk7J5b4X9hBpb9_I-21" value="Hospital Reports" style="text;html=1;align=center;verticalAlign=middle;whiteSpace=wrap;rounded=0;" vertex="1" parent="1">
          <mxGeometry x="260" y="420" width="60" height="30" as="geometry" />
        </mxCell>
        <mxCell id="uMQBJk7J5b4X9hBpb9_I-22" value="Add Record" style="text;html=1;align=center;verticalAlign=middle;whiteSpace=wrap;rounded=0;" vertex="1" parent="1">
          <mxGeometry x="500" y="420" width="60" height="30" as="geometry" />
        </mxCell>
        <mxCell id="uMQBJk7J5b4X9hBpb9_I-23" value="Hospital Management System" style="text;html=1;align=center;verticalAlign=middle;whiteSpace=wrap;rounded=0;" vertex="1" parent="1">
          <mxGeometry x="395" y="580" width="60" height="30" as="geometry" />
        </mxCell>
        <mxCell id="uMQBJk7J5b4X9hBpb9_I-24" value="Payment" style="text;html=1;align=center;verticalAlign=middle;whiteSpace=wrap;rounded=0;" vertex="1" parent="1">
          <mxGeometry x="560" y="520" width="60" height="30" as="geometry" />
        </mxCell>
        <mxCell id="uMQBJk7J5b4X9hBpb9_I-25" value="Report" style="text;html=1;align=center;verticalAlign=middle;whiteSpace=wrap;rounded=0;" vertex="1" parent="1">
          <mxGeometry x="210" y="510" width="60" height="30" as="geometry" />
        </mxCell>
        <mxCell id="uMQBJk7J5b4X9hBpb9_I-26" value="Admin" style="text;html=1;align=center;verticalAlign=middle;whiteSpace=wrap;rounded=0;" vertex="1" parent="1">
          <mxGeometry x="40" y="595" width="60" height="30" as="geometry" />
        </mxCell>
        <mxCell id="uMQBJk7J5b4X9hBpb9_I-27" value="Patient" style="text;html=1;align=center;verticalAlign=middle;whiteSpace=wrap;rounded=0;" vertex="1" parent="1">
          <mxGeometry x="720" y="595" width="60" height="30" as="geometry" />
        </mxCell>
        <mxCell id="uMQBJk7J5b4X9hBpb9_I-28" value="Create Staff Account" style="text;html=1;align=center;verticalAlign=middle;whiteSpace=wrap;rounded=0;" vertex="1" parent="1">
          <mxGeometry x="200" y="670" width="60" height="30" as="geometry" />
        </mxCell>
        <mxCell id="uMQBJk7J5b4X9hBpb9_I-29" value="Discharge Bill" style="text;html=1;align=center;verticalAlign=middle;whiteSpace=wrap;rounded=0;" vertex="1" parent="1">
          <mxGeometry x="550" y="670" width="60" height="30" as="geometry" />
        </mxCell>
      </root>
    </mxGraphModel>
  </diagram>
</mxfile>
